<?xml version="1.0" standalone="no"?>
<!DOCTYPE svg PUBLIC "-//W3C//DTD SVG 20010904//EN"
 "http://www.w3.org/TR/2001/REC-SVG-20010904/DTD/svg10.dtd">
<svg version="1.0" xmlns="http://www.w3.org/2000/svg"
 width="360.000000pt" height="270.000000pt" viewBox="0 0 360.000000 270.000000"
 preserveAspectRatio="xMidYMid meet">

<g transform="translate(0.000000,270.000000) scale(0.100000,-0.100000)"
fill="#000000" stroke="none">
<path d="M1383 2260 c-59 -34 -117 -104 -135 -161 l-11 -39 -36 73 c-20 39
-43 73 -53 75 -57 11 -58 -309 -1 -421 13 -26 13 -29 -11 -48 -14 -11 -28 -30
-32 -42 -4 -12 -20 -37 -36 -56 -62 -71 -76 -161 -44 -282 6 -23 4 -27 -18
-33 -36 -9 -56 -33 -56 -67 0 -54 156 -181 253 -204 15 -4 27 -8 27 -10 0 -1
-5 -17 -11 -34 -11 -33 -12 -33 -63 -25 -28 4 -64 8 -80 8 -21 1 -39 13 -69
46 -55 62 -76 113 -93 233 -17 117 -94 397 -130 474 -13 28 -24 56 -24 62 0 5
-25 37 -57 71 -86 94 -175 139 -233 118 -46 -15 -39 -45 25 -108 56 -56 70
-79 36 -60 -38 20 -107 12 -140 -16 -55 -46 -31 -111 65 -182 35 -26 63 -50
64 -54 0 -5 -11 -8 -24 -8 -28 0 -66 -42 -66 -74 0 -36 35 -80 87 -111 l51
-30 -31 -10 c-37 -12 -58 -55 -41 -83 6 -9 65 -48 130 -85 140 -81 207 -130
274 -204 l50 -54 -6 -57 c-4 -39 -1 -71 10 -101 9 -24 16 -48 16 -53 0 -12
-105 -58 -133 -58 -26 0 -67 39 -90 85 -8 17 -24 66 -36 110 -12 44 -34 101
-49 128 -34 62 -113 134 -157 143 -71 13 -145 -37 -145 -98 0 -25 -3 -29 -18
-22 -9 4 -36 9 -59 12 -36 3 -44 0 -58 -22 -25 -38 -15 -109 29 -202 98 -207
245 -337 380 -337 63 1 243 67 332 123 88 54 95 55 170 25 81 -32 182 -42 282
-26 l73 11 92 -86 c117 -110 171 -136 288 -142 98 -5 159 9 277 63 162 75 332
299 336 443 1 48 -2 56 -29 78 -36 30 -91 28 -135 -5 l-27 -20 -12 40 c-7 21
-28 57 -49 78 -46 49 -97 64 -163 50 -100 -22 -131 -72 -193 -307 -49 -186
-49 -186 -78 -218 l-20 -22 -88 50 -88 51 25 36 c22 32 24 44 21 107 -9 134
-77 204 -199 204 -32 0 -70 -5 -84 -10 -26 -10 -27 -9 -20 17 4 16 7 29 8 29
1 1 39 7 84 13 45 6 103 20 129 32 56 27 104 88 104 133 0 31 -22 74 -46 89
-8 5 -11 20 -7 42 6 35 -9 87 -34 116 -13 16 -8 49 7 49 13 0 50 107 50 144 0
44 -32 83 -81 97 -43 13 -47 25 -24 69 25 48 49 55 100 30 93 -45 134 -134
143 -307 2 -62 8 -113 12 -113 11 0 79 56 99 82 49 62 73 240 52 378 -29 189
-93 305 -197 356 -90 44 -155 36 -286 -34 -3 -1 -2 15 3 38 16 69 1 75 -78 30z
m-815 -300 c65 -30 155 -121 185 -188 22 -50 71 -205 113 -357 7 -27 20 -96
29 -153 18 -125 29 -151 88 -222 l46 -55 -26 -27 -26 -27 -71 72 c-83 85 -131
119 -281 202 -94 52 -110 64 -110 85 0 34 40 53 86 40 19 -6 74 -40 122 -76
85 -65 118 -78 80 -34 -33 39 -119 99 -214 150 -137 74 -166 115 -117 167 38
40 60 31 175 -77 59 -55 109 -98 111 -95 15 15 -136 164 -266 263 -77 59 -112
101 -112 136 0 28 50 56 99 56 70 0 125 -40 206 -149 67 -89 75 -97 88 -85 10
11 -94 143 -205 259 -60 63 -107 119 -103 125 10 16 56 11 103 -10z m956 -342
c25 -35 19 -79 -26 -195 l-43 -108 -5 72 c-4 51 -10 77 -24 92 -21 23 -46 27
-64 9 -22 -22 -24 0 -4 39 30 57 95 112 134 113 9 0 24 -10 32 -22z m-250 -52
c13 -12 31 -37 40 -54 l16 -31 -34 6 c-74 12 -104 -84 -51 -162 15 -20 24 -40
21 -43 -3 -3 -22 3 -41 14 -37 20 -54 59 -70 161 -16 105 57 172 119 109z
m146 -150 c0 -20 -18 -39 -29 -32 -12 8 -15 59 -4 70 8 8 33 -21 33 -38z
m-120 8 c11 -28 -3 -68 -23 -61 -14 4 -28 54 -20 73 8 23 33 16 43 -12z m-133
-128 c70 -19 75 -23 62 -47 -17 -32 -7 -31 40 7 24 18 55 34 68 34 26 0 64
-17 75 -34 4 -7 16 -5 34 4 27 15 144 17 166 4 6 -4 16 -22 24 -40 12 -30 12
-38 0 -62 -65 -124 -294 -149 -493 -52 -57 29 -179 128 -141 116 16 -5 27 12
34 50 2 14 -27 14 -46 0 -13 -9 -13 -9 -2 6 22 28 102 34 179 14z m-639 -220
c15 -8 41 -29 57 -47 29 -32 28 -32 -12 4 -40 35 -55 41 -113 50 -20 3 -18 5
8 6 18 0 45 -5 60 -13z m765 -47 c30 -8 37 -14 32 -27 -12 -31 -18 -85 -9 -80
62 30 92 39 122 36 33 -3 39 -7 51 -43 9 -24 15 -78 15 -135 1 -117 -22 -173
-75 -184 -84 -17 -267 1 -298 29 -1 2 11 21 27 42 44 55 66 131 59 202 -4 32
-9 65 -13 74 -4 12 -1 17 10 17 11 0 18 13 22 40 7 45 5 44 57 29z m705 -29
c-22 -30 -35 -41 -22 -17 9 16 36 47 41 47 2 0 -6 -13 -19 -30z m-1730 -31
c-23 -13 -24 -66 -3 -116 8 -20 14 -38 11 -40 -8 -9 -36 80 -36 116 0 42 5 51
29 51 14 -1 13 -2 -1 -11z m2165 -51 c15 -11 13 -13 -15 -12 -18 1 -39 -4 -47
-10 -11 -8 -13 -8 -7 2 11 19 -8 14 -40 -9 -26 -19 -25 -18 4 10 35 33 75 40
105 19z m-506 -90 c-3 -8 -6 -5 -6 6 -1 11 2 17 5 13 3 -3 4 -12 1 -19z m-10
-40 c-3 -8 -6 -5 -6 6 -1 11 2 17 5 13 3 -3 4 -12 1 -19z m-10 -40 c-3 -8 -6
-5 -6 6 -1 11 2 17 5 13 3 -3 4 -12 1 -19z m-20 -80 c-3 -8 -6 -5 -6 6 -1 11
2 17 5 13 3 -3 4 -12 1 -19z m-1506 -25 c13 -16 12 -17 -3 -4 -10 7 -18 15
-18 17 0 8 8 3 21 -13z m1230 -40 c13 -16 12 -17 -3 -5 -9 8 -23 10 -29 6 -8
-4 -9 -3 -5 4 10 17 21 15 37 -5z m-1186 -13 c10 -11 16 -20 13 -20 -3 0 -13
9 -23 20 -10 11 -16 20 -13 20 3 0 13 -9 23 -20z m1635 -180 c-8 -5 -19 -10
-25 -10 -5 0 -3 5 5 10 8 5 20 10 25 10 6 0 3 -5 -5 -10z"/>
<path d="M1111 1251 c-14 -4 -27 -13 -29 -20 -3 -10 3 -11 27 -6 25 5 37 2 62
-19 17 -14 37 -26 45 -26 8 0 19 -11 24 -25 13 -34 67 -65 112 -65 38 0 62 16
73 49 3 10 19 24 35 31 16 7 35 18 41 26 6 8 20 14 30 14 25 0 24 15 -3 34
-28 20 -58 20 -58 1 0 -8 5 -15 10 -15 22 0 8 -17 -26 -34 -52 -24 -92 -14
-110 30 -8 19 -18 34 -22 34 -5 0 -18 -13 -30 -30 -26 -35 -58 -39 -93 -11
-39 30 -63 38 -88 32z m183 -101 c5 0 5 8 2 17 -6 15 -4 15 14 -2 23 -21 27
-45 6 -45 -17 0 -66 38 -66 52 0 6 8 4 18 -5 10 -10 22 -17 26 -17z"/>
<path d="M1260 1230 c-14 -11 -20 -20 -13 -20 11 0 43 26 43 36 0 7 -4 5 -30
-16z"/>
<path d="M1360 1224 c0 -1 6 -7 14 -13 10 -8 16 -8 24 2 9 10 6 13 -13 13 -14
0 -25 -1 -25 -2z"/>
<path d="M1423 1223 c4 -3 -1 -12 -11 -20 -15 -13 -15 -13 6 -3 19 9 23 30 5
30 -4 0 -3 -3 0 -7z"/>
<path d="M1610 1168 c-12 -22 -12 -22 6 -6 10 10 15 20 12 24 -4 3 -12 -5 -18
-18z"/>
</g>
</svg>
